# xmcd CD database file
#
# Track frame offsets:
#	150
#	19712
#	34322
#	43772
#	52940
#	61545
#	80117
#	93832
#	109675
#	128360
#	145290
#	156947
#	166360
#	179722
#	194497
#
# Disc length: 2852 seconds
#
# Revision: 5
# Processed by: cddbd v1.5.2PL0 Copyright (c) Steve Scherf et al.
# Submitted via: CDex 1.70beta3
#
DISCID=c60b220f
DTITLE=ウスイノブヤ・岩崎文紀・高濱祐輔・酒井陽一 - ハッピー・レッスン・アドバンス　オリジナル・サウンドトラック
DYEAR=2003
DGENRE=Anime(J)
TTITLE0=Sleepin’JohnnyFish/RADIOジャック
TTITLE1=メインテーマ～advantage lovers (slow version)
TTITLE2=ママたちのテーマ～午後のシャワー
TTITLE3=ビューティハニーのテーマ
TTITLE4=easy action
TTITLE5=why
TTITLE6=ママたちのテーマ～花畑にふたり
TTITLE7=ママたちのテーマ～指先
TTITLE8=Runner`s high
TTITLE9=one or zero
TTITLE10=秘め事
TTITLE11=封印
TTITLE12=記憶のむこう
TTITLE13=ながつきのテーマ～遥かなる空
TTITLE14=Millio/パーティー
EXTD=YEAR: 2003
EXTT0=
EXTT1=
EXTT2=
EXTT3=
EXTT4=
EXTT5=
EXTT6=
EXTT7=
EXTT8=
EXTT9=
EXTT10=
EXTT11=
EXTT12=
EXTT13=
EXTT14=
PLAYORDER=
